<svg xmlns="http://www.w3.org/2000/svg" viewBox="0 0 120 180">
    <!-- Scroll base with shadow -->
    <path d="M15 15 C15 15, 105 15, 105 15
           C115 15, 118 20, 118 25
           L118 155
           C118 160, 115 165, 105 165
           L15 165
           C5 165, 2 160, 2 155
           L2 25
           C2 20, 5 15, 15 15"
          fill="#f4d03f" stroke="#8b4513" stroke-width="2"/>

    <!-- Scroll edges/rolls -->
    <path d="M2 25 C2 20, 5 15, 15 15
           Q10 22, 10 25 Z"
          fill="#d4b130"/>
    <path d="M118 25 C118 20, 115 15, 105 15
           Q110 22, 110 25 Z"
          fill="#d4b130"/>
    <path d="M2 155 C2 160, 5 165, 15 165
           Q10 158, 10 155 Z"
          fill="#d4b130"/>
    <path d="M118 155 C118 160, 115 165, 105 165
           Q110 158, 110 155 Z"
          fill="#d4b130"/>

    <!-- Decorative lines -->
    <path d="M20 45 L100 45" stroke="#8b4513" stroke-width="1" opacity="0.3"/>
    <path d="M20 135 L100 135" stroke="#8b4513" stroke-width="1" opacity="0.3"/>

    <!-- Text "3 W" -->
    <text x="60" y="98"
          font-family="serif"
          font-size="45"
          font-weight="bold"
          text-anchor="middle"
          fill="#8b4513"
          style="font-style: italic;">3 W</text>
</svg>